<?xml version="1.0" encoding="UTF-8" standalone="no"?>
<svg
   viewBox="0 0 512 512"
   x="0px"
   y="0px"
   version="1.1"
   id="svg2"
   sodipodi:docname="noun-van-4872356.svg"
   inkscape:version="1.4 (e7c3feb1, 2024-10-09)"
   width="512"
   height="512"
   xmlns:inkscape="http://www.inkscape.org/namespaces/inkscape"
   xmlns:sodipodi="http://sodipodi.sourceforge.net/DTD/sodipodi-0.dtd"
   xmlns="http://www.w3.org/2000/svg"
   xmlns:svg="http://www.w3.org/2000/svg">
  <defs
     id="defs2" />
  <sodipodi:namedview
     id="namedview2"
     pagecolor="#ffffff"
     bordercolor="#000000"
     borderopacity="0.25"
     inkscape:showpageshadow="2"
     inkscape:pageopacity="0.0"
     inkscape:pagecheckerboard="0"
     inkscape:deskcolor="#d1d1d1"
     inkscape:zoom="0.54947245"
     inkscape:cx="379.45488"
     inkscape:cy="682.4728"
     inkscape:window-width="1920"
     inkscape:window-height="1147"
     inkscape:window-x="0"
     inkscape:window-y="25"
     inkscape:window-maximized="1"
     inkscape:current-layer="svg2" />
  <path
     d="m 488,312 c -8.84,0 -16,-7.16 -16,-16 0,-8.84 7.16,-16 16,-16 h 23.73 c -1.82,-17.14 -12.72,-32.12 -28.82,-39.02 L 451.69,227.6 417.37,158.95 c -9.55,-19.09 -28.74,-30.96 -50.09,-30.96 H 48 c -26.47,0 -48,21.53 -48,48 v 56 h 24 c 8.84,0 16,7.16 16,16 0,8.84 -7.16,16 -16,16 H 0 v 16 h 24 c 8.84,0 16,7.16 16,16 0,8.84 -7.16,16 -16,16 H 0 v 40 c 0,8.84 7.16,16 16,16 h 69.41 c 9,18.9 28.29,32 50.59,32 22.3,0 41.58,-13.1 50.59,-32 h 170.83 c 9,18.9 28.29,32 50.59,32 22.3,0 41.58,-13.1 50.59,-32 h 37.41 c 8.84,0 16,-7.16 16,-16 v -40 h -24 z m -352,56 c -13.23,0 -24,-10.77 -24,-24 0,-13.23 10.77,-24 24,-24 13.23,0 24,10.77 24,24 0,13.23 -10.77,24 -24,24 z M 358.06,207.59 342.2,160 h 25.08 c 9.15,0 17.38,5.08 21.47,13.27 L 414.12,224 h -33.28 c -10.35,0 -19.5,-6.59 -22.77,-16.41 z M 408,368 c -13.23,0 -24,-10.77 -24,-24 0,-13.23 10.77,-24 24,-24 13.23,0 24,10.77 24,24 0,13.23 -10.77,24 -24,24 z"
     id="path1"
     style="fill:#ffffff;fill-opacity:1" />
</svg>
