<?xml version="1.0" encoding="UTF-8" standalone="no"?>
<svg
   viewBox="0 0 512 512"
   x="0px"
   y="0px"
   version="1.1"
   id="svg2"
   sodipodi:docname="noun-station-wagon-4872353.svg"
   inkscape:version="1.4 (e7c3feb1, 2024-10-09)"
   width="512"
   height="512"
   xmlns:inkscape="http://www.inkscape.org/namespaces/inkscape"
   xmlns:sodipodi="http://sodipodi.sourceforge.net/DTD/sodipodi-0.dtd"
   xmlns="http://www.w3.org/2000/svg"
   xmlns:svg="http://www.w3.org/2000/svg">
  <defs
     id="defs2" />
  <sodipodi:namedview
     id="namedview2"
     pagecolor="#ffffff"
     bordercolor="#000000"
     borderopacity="0.25"
     inkscape:showpageshadow="2"
     inkscape:pageopacity="0.0"
     inkscape:pagecheckerboard="0"
     inkscape:deskcolor="#d1d1d1"
     inkscape:zoom="0.83656487"
     inkscape:cx="238.47523"
     inkscape:cy="572.57963"
     inkscape:window-width="1920"
     inkscape:window-height="1147"
     inkscape:window-x="0"
     inkscape:window-y="25"
     inkscape:window-maximized="0"
     inkscape:current-layer="svg2" />
  <path
     d="m 472,296 c 0,-8.84 7.16,-16 16,-16 h 24 c 0,-25.42 -17.17,-47.7 -41.76,-54.16 L 407.82,209.43 344.96,152.86 C 332.82,141.93 317.14,135.92 300.81,135.92 H 69.01 c -19.27,0 -36.64,12.17 -43.23,30.28 L 3.37,227.83 C 1.13,233.98 0,240.42 0,246.97 v 17.04 h 24 c 8.84,0 16,7.16 16,16 0,8.84 -7.16,16 -16,16 H 0 v 7.41 c 0,21.85 15.55,40.82 36.98,45.11 l 47.54,9.51 c 8.57,19.96 28.42,33.98 51.48,33.98 23.06,0 41.58,-13.1 50.59,-32 h 170.83 c 9,18.9 28.29,32 50.59,32 22.3,0 41.58,-13.1 50.59,-32 h 37.41 c 8.84,0 16,-7.16 16,-16 v -32 h -24 c -8.84,0 -16,-7.16 -16,-16 z m -336,64 c -13.23,0 -24,-10.77 -24,-24 0,-13.23 10.77,-24 24,-24 13.23,0 24,10.77 24,24 0,13.23 -10.77,24 -24,24 z m 32,-152.08 h -60.05 l 8.89,-40 h 51.17 v 40 z m 80,0 h -48 v -40 h 48 z m 32,0 v -40 h 20.81 c 8.41,0 16.49,3.1 22.75,8.73 l 34.75,31.27 z M 408,360 c -13.23,0 -24,-10.77 -24,-24 0,-13.23 10.77,-24 24,-24 13.23,0 24,10.77 24,24 0,13.23 -10.77,24 -24,24 z"
     id="path1"
     style="fill:#ffffff;fill-opacity:1" />
</svg>
