<?xml version="1.0" encoding="UTF-8" standalone="no"?>
<svg
   version="1.1"
   x="0px"
   y="0px"
   viewBox="0 0 512 512"
   enable-background="new 0 0 2000 2000"
   xml:space="preserve"
   id="svg8"
   sodipodi:docname="noun-hand-box-cart-4205700.svg"
   width="512"
   height="512"
   inkscape:version="1.4 (e7c3feb1, 2024-10-09)"
   xmlns:inkscape="http://www.inkscape.org/namespaces/inkscape"
   xmlns:x="adobe:ns:meta/"
   xmlns:sodipodi="http://sodipodi.sourceforge.net/DTD/sodipodi-0.dtd"
   xmlns="http://www.w3.org/2000/svg"
   xmlns:svg="http://www.w3.org/2000/svg"><defs
     id="defs8" /><sodipodi:namedview
     id="namedview8"
     pagecolor="#ffffff"
     bordercolor="#000000"
     borderopacity="0.25"
     inkscape:showpageshadow="2"
     inkscape:pageopacity="0.0"
     inkscape:pagecheckerboard="0"
     inkscape:deskcolor="#d1d1d1"
     inkscape:zoom="0.45416209"
     inkscape:cx="553.76705"
     inkscape:cy="103.48728"
     inkscape:window-width="1920"
     inkscape:window-height="1147"
     inkscape:window-x="0"
     inkscape:window-y="25"
     inkscape:window-maximized="1"
     inkscape:current-layer="svg8" /><metadata
     id="metadata1"><?xpacket begin="&#65279;" id="W5M0MpCehiHzreSzNTczkc9d"?><x:xmpmeta
       x:xmptk="Adobe XMP Core 5.3-c011 66.145661, 2012/02/06-14:56:27        " /><?xpacket end="w"?></metadata><g
     id="g7"
     transform="matrix(0.32794618,0,0,0.32794618,-60.910547,-66.829585)"
     style="fill:#ffffff"><g
       id="g1"
       style="fill:#ffffff"><path
         d="M 1535.862,1532.449 H 884.767 c 1.394,9.805 2.13,19.817 2.13,30 0,10.183 -0.736,20.195 -2.13,30 h 651.096 c 16.568,0 30,-13.432 30,-30 0,-16.568 -13.432,-30 -30.001,-30 z"
         id="path1"
         style="fill:#ffffff" /></g><g
       id="g2"
       style="fill:#ffffff"><path
         d="m 1467.061,1471.678 v -247.127 c 0,-16.568 -13.432,-30 -30,-30 H 770.977 c -16.568,0 -30,13.432 -30,30 v 136.216 c 65.618,21.661 117.172,74.507 137.043,140.911 h 559.041 c 16.568,0 30,-13.432 30,-30 z"
         id="path2"
         style="fill:#ffffff" /></g><g
       id="g3"
       style="fill:#ffffff"><path
         d="m 644.53,1352.251 c 9.815,-1.396 19.839,-2.134 30.034,-2.134 10.171,0 20.172,0.734 29.966,2.125 V 344.199 c 0,-13.45 -8.952,-25.256 -21.903,-28.887 L 472.243,256.34 c -15.955,-4.473 -32.513,4.836 -36.984,20.789 -4.472,15.954 4.836,32.513 20.79,36.984 l 188.481,52.833 z"
         id="path3"
         style="fill:#ffffff" /></g><g
       id="g4"
       style="fill:#ffffff"><path
         d="m 674.564,1380.117 c -100.538,0 -182.332,81.794 -182.332,182.332 0,100.538 81.794,182.332 182.332,182.332 100.538,0 182.332,-81.794 182.332,-182.332 0,-100.538 -81.793,-182.332 -182.332,-182.332 z m 0,266.813 c -46.659,0 -84.481,-37.823 -84.481,-84.48 0,-46.658 37.822,-84.481 84.481,-84.481 46.657,0 84.48,37.823 84.48,84.481 10e-4,46.656 -37.822,84.48 -84.48,84.48 z"
         id="path4"
         style="fill:#ffffff" /></g><g
       id="g5"
       style="fill:#ffffff"><path
         d="m 1318.173,826.516 c 0,-16.568 -13.432,-30 -30,-30 H 919.864 c -16.568,0 -30,13.432 -30,30 v 138.23 h 428.309 z"
         id="path5"
         style="fill:#ffffff" /></g><g
       id="g6"
       style="fill:#ffffff"><path
         d="m 1372.383,1024.746 c 0,-16.568 -13.432,-30 -30,-30 H 865.654 c -16.568,0 -30,13.432 -30,30 v 139.805 h 536.729 z"
         id="path6"
         style="fill:#ffffff" /></g></g></svg>
