<?xml version="1.0" encoding="UTF-8" standalone="no"?>
<svg
   viewBox="0 0 512 512"
   x="0px"
   y="0px"
   version="1.1"
   id="svg2"
   sodipodi:docname="noun-sedan-4872350.svg"
   inkscape:version="1.4 (e7c3feb1, 2024-10-09)"
   width="512"
   height="512"
   xmlns:inkscape="http://www.inkscape.org/namespaces/inkscape"
   xmlns:sodipodi="http://sodipodi.sourceforge.net/DTD/sodipodi-0.dtd"
   xmlns="http://www.w3.org/2000/svg"
   xmlns:svg="http://www.w3.org/2000/svg">
  <defs
     id="defs2" />
  <sodipodi:namedview
     id="namedview2"
     pagecolor="#ffffff"
     bordercolor="#000000"
     borderopacity="0.25"
     inkscape:showpageshadow="2"
     inkscape:pageopacity="0.0"
     inkscape:pagecheckerboard="0"
     inkscape:deskcolor="#d1d1d1"
     inkscape:zoom="1.0650005"
     inkscape:cx="136.61965"
     inkscape:cy="333.33318"
     inkscape:window-width="1920"
     inkscape:window-height="1147"
     inkscape:window-x="0"
     inkscape:window-y="25"
     inkscape:window-maximized="1"
     inkscape:current-layer="svg2" />
  <path
     d="m 488,304 c -8.84,0 -16,-7.16 -16,-16 0,-8.84 7.16,-16 16,-16 h 22.83 c -4.76,-23.04 -23.76,-41.24 -47.89,-44.26 l -87.98,-11 -64.86,-58.37 C 299.8,149.1 286.5,143.99 272.64,143.99 H 163.99 c -17.53,0 -34.28,8.37 -44.8,22.4 L 86.86,209.5 45.01,217.87 C 19.19,223.05 0.39,245.74 0.02,272 H 24 c 8.84,0 16,7.16 16,16 0,8.84 -7.16,16 -16,16 H 0 v 24 c 0,8.84 7.16,16 16,16 h 66.08 c 10.13,14.49 26.93,24 45.92,24 18.99,0 35.79,-9.51 45.92,-24 h 188.17 c 10.13,14.49 26.93,24 45.92,24 18.99,0 35.79,-9.51 45.92,-24 h 42.08 c 8.84,0 16,-7.16 16,-16 v -24 h -24 z m -360,32 c -13.23,0 -24,-10.77 -24,-24 0,-13.23 10.77,-24 24,-24 13.23,0 24,10.77 24,24 0,13.23 -10.77,24 -24,24 z m 72,-120 h -40 c -14.44,0 -26.64,-1.12 -36.15,-2.47 L 144.8,185.6 c 4.51,-6.01 11.69,-9.6 19.2,-9.6 h 36 z m 32,0 v -40 h 40.65 c 5.94,0 11.64,2.19 16.06,6.16 l 37.6,33.84 z m 176,120 c -13.23,0 -24,-10.77 -24,-24 0,-13.23 10.77,-24 24,-24 13.23,0 24,10.77 24,24 0,13.23 -10.77,24 -24,24 z"
     id="path1"
     style="fill:#ffffff;fill-opacity:1" />
</svg>
