<?xml version="1.0" encoding="UTF-8" standalone="no"?>
<svg
   version="1.1"
   x="0px"
   y="0px"
   viewBox="0 0 64 64"
   xml:space="preserve"
   id="svg2"
   sodipodi:docname="service-05-urgent-noun-urgent-5607691.svg"
   width="64"
   height="64"
   inkscape:version="1.4 (e7c3feb1, 2024-10-09)"
   xmlns:inkscape="http://www.inkscape.org/namespaces/inkscape"
   xmlns:sodipodi="http://sodipodi.sourceforge.net/DTD/sodipodi-0.dtd"
   xmlns="http://www.w3.org/2000/svg"
   xmlns:svg="http://www.w3.org/2000/svg"><defs
     id="defs2" /><sodipodi:namedview
     id="namedview2"
     pagecolor="#ffffff"
     bordercolor="#000000"
     borderopacity="0.25"
     inkscape:showpageshadow="2"
     inkscape:pageopacity="0.0"
     inkscape:pagecheckerboard="0"
     inkscape:deskcolor="#d1d1d1"
     inkscape:zoom="8.1218007"
     inkscape:cx="35.829493"
     inkscape:cy="48.388284"
     inkscape:window-width="1920"
     inkscape:window-height="1147"
     inkscape:window-x="0"
     inkscape:window-y="25"
     inkscape:window-maximized="1"
     inkscape:current-layer="svg2" /><path
     d="m 31.999837,17.874392 c -11.240386,0 -20.38509,9.144704 -20.38509,20.385089 0,11.240385 9.144704,20.385088 20.38509,20.385088 11.240385,0 20.385088,-9.144703 20.385088,-20.385088 0,-11.240385 -9.144703,-20.385089 -20.385088,-20.385089 z m 0,39.4615 c -10.518814,0 -19.076414,-8.557598 -19.076414,-19.076411 0,-10.518814 8.5576,-19.076412 19.076414,-19.076412 10.518812,0 19.076412,8.557598 19.076412,19.076412 0,10.518813 -8.5576,19.076411 -19.076412,19.076411 z M 57.740519,38.259481 c 0,-5.112017 -1.498108,-9.880506 -4.077999,-13.889964 l 2.021742,-2.021578 c 0.948627,-0.948627 0.948627,-2.492048 0,-3.440675 l -3.246171,-3.24617 c -0.948792,-0.948954 -2.492212,-0.948792 -3.440838,0 L 47.176065,17.48228 C 43.950342,15.119792 40.157471,13.489181 36.042338,12.837297 V 9.1460119 h 2.136905 c 1.438235,0 2.608356,-1.1701201 2.608356,-2.6083554 V 2.6083557 C 40.787599,1.1701203 39.617478,0 38.179243,0 H 25.820757 c -1.438235,0 -2.608356,1.1701203 -2.608356,2.6083557 v 3.9291372 c 0,1.4382353 1.170121,2.6083554 2.608356,2.6083554 h 2.136905 v 3.6912857 c -4.115133,0.651884 -7.908168,2.282493 -11.133728,4.644982 l -1.821187,-1.821187 c -0.948789,-0.948954 -2.49221,-0.948789 -3.440837,0 l -3.2461715,3.246173 c -0.9486269,0.948625 -0.9486269,2.492046 0,3.440673 L 10.33748,24.369353 C 7.7575881,28.378975 6.2594808,33.147464 6.2594808,38.259317 6.2594808,52.45273 17.806587,64 32.000164,64 46.19374,64 57.740519,52.452894 57.740519,38.259481 Z M 49.922486,16.586328 c 0.438408,-0.438407 1.151636,-0.438407 1.589879,0 l 3.246172,3.246171 c 0.212333,0.212497 0.329295,0.494681 0.329295,0.795021 0,0.300341 -0.116959,0.582688 -0.329295,0.795021 l -1.846215,1.846215 C 51.574691,21.407982 49.995118,19.732713 48.220226,18.288424 Z M 24.520915,6.5374929 V 2.6083557 c 0,-0.7166639 0.583015,-1.2996793 1.299678,-1.2996793 h 12.358486 c 0.716664,0 1.299678,0.5830154 1.299678,1.2996793 v 3.9291372 c 0,0.7166636 -0.583014,1.2996794 -1.299678,1.2996794 H 25.820593 c -0.716663,0 -1.299678,-0.5830158 -1.299678,-1.2996794 z m 4.745423,2.6083554 h 5.46716 V 12.66406 C 33.835092,12.56885 32.923271,12.518798 32,12.518798 c -0.923271,0 -1.835092,0.04989 -2.733497,0.145262 V 9.1458483 Z M 9.2411357,21.422541 C 9.0288039,21.210045 8.9118401,20.927861 8.9118401,20.62752 c 0,-0.30034 0.1169587,-0.582689 0.3292956,-0.795021 l 3.2461713,-3.246171 c 0.438407,-0.438407 1.151636,-0.438407 1.589879,0 l 1.70226,1.70226 c -1.774891,1.444287 -3.354463,3.119559 -4.692095,4.980332 z M 31.999837,62.691324 c -13.471843,0 -24.432007,-10.960166 -24.432007,-24.432007 0,-13.471842 10.960164,-24.432007 24.432007,-24.432007 13.471841,0 24.432005,10.960165 24.432005,24.432007 0,13.471841 -10.960164,24.432007 -24.432005,24.432007 z m 0,-20.37413 c -2.163734,0 -3.924066,1.760334 -3.924066,3.923904 0,2.163896 1.760332,3.924066 3.924066,3.924066 2.163732,0 3.924066,-1.760334 3.924066,-3.924066 0,-2.163732 -1.760334,-3.923904 -3.924066,-3.923904 z m 0,6.539293 c -1.442162,0 -2.61539,-1.173227 -2.61539,-2.615389 0,-1.441998 1.173228,-2.615226 2.61539,-2.615226 1.442162,0 2.615388,1.173228 2.615388,2.615226 0,1.442162 -1.173226,2.615389 -2.615388,2.615389 z m 2.173711,-26.550753 h -4.347259 c -0.687219,0 -1.326506,0.274331 -1.800084,0.772283 -0.473578,0.497951 -0.71552,1.149999 -0.681166,1.836563 l 0.644358,12.843188 c 0.06642,1.323398 1.156216,2.359869 2.481088,2.359869 h 3.058539 c 1.324872,0 2.414673,-1.036471 2.481087,-2.359869 L 36.654472,24.91458 c 0.03434,-0.6864 -0.20759,-1.338612 -0.681168,-1.836563 -0.473249,-0.498115 -1.112538,-0.772283 -1.799756,-0.772283 z m 1.174047,2.543086 -0.64436,12.843186 c -0.03141,0.626039 -0.54719,1.116628 -1.174046,1.116628 h -3.058541 c -0.62702,0 -1.142638,-0.490589 -1.174045,-1.116628 L 28.652242,24.84882 c -0.01635,-0.324716 0.09815,-0.633564 0.322262,-0.869125 0.224112,-0.235562 0.526577,-0.365284 0.851948,-0.365284 h 4.347259 c 0.325207,0 0.627674,0.129722 0.851948,0.365284 0.224275,0.235561 0.338294,0.544409 0.321936,0.869125 z"
     id="path1"
     style="stroke-width:0.163584;fill:#ff5e14;fill-opacity:1"
     sodipodi:nodetypes="sssssssssssccscccccsssssssscccccsccssscccsccccssssssssscccsccccscsccccssssssssssssssssssccsscccsccssccssssc" /></svg>
