<?xml version="1.0" encoding="UTF-8" standalone="no"?>
<svg
   version="1.1"
   x="0px"
   y="0px"
   viewBox="0 0 64 64"
   xml:space="preserve"
   id="svg8"
   sodipodi:docname="service-03-rush-noun-rush-4710421.svg"
   width="64"
   height="64"
   inkscape:version="1.4 (e7c3feb1, 2024-10-09)"
   xmlns:inkscape="http://www.inkscape.org/namespaces/inkscape"
   xmlns:sodipodi="http://sodipodi.sourceforge.net/DTD/sodipodi-0.dtd"
   xmlns="http://www.w3.org/2000/svg"
   xmlns:svg="http://www.w3.org/2000/svg"><defs
     id="defs8" /><sodipodi:namedview
     id="namedview8"
     pagecolor="#ffffff"
     bordercolor="#000000"
     borderopacity="0.25"
     inkscape:showpageshadow="2"
     inkscape:pageopacity="0.0"
     inkscape:pagecheckerboard="0"
     inkscape:deskcolor="#d1d1d1"
     inkscape:zoom="4.2388458"
     inkscape:cx="16.631886"
     inkscape:cy="31.848292"
     inkscape:window-width="1920"
     inkscape:window-height="1147"
     inkscape:window-x="0"
     inkscape:window-y="25"
     inkscape:window-maximized="1"
     inkscape:current-layer="svg8" /><g
     id="g7"
     transform="matrix(1.28,0,0,1.28,-8.81792,-11.072)"
     style="fill:#ff5e14;fill-opacity:1"><path
       d="m 56,26 h -6 c -0.553,0 -1,0.448 -1,1 v 2 h -5 v -2.101 c 0.323,0.066 0.658,0.101 1,0.101 2.757,0 5,-2.243 5,-5 v -1 h 3 c 0.553,0 1,-0.448 1,-1 0,-0.552 -0.447,-1 -1,-1 H 49.899 C 49.434,16.721 47.415,15 45,15 c -2.757,0 -5,2.243 -5,5 v 2 c 0,0.346 0.036,0.684 0.103,1.01 -2.325,0.053 -4.504,0.976 -6.153,2.626 L 26.293,33.293 8.707,50.878 C 8.141,51.445 7.828,52.199 7.828,53 c 0,0.801 0.313,1.555 0.879,2.121 l 0.172,0.172 c 0.585,0.584 1.352,0.877 2.121,0.877 0.768,0 1.536,-0.292 2.121,-0.877 l 12.941,-12.941 2.879,2.879 c 0.189,0.188 0.293,0.439 0.293,0.707 0,0.268 -0.104,0.518 -0.293,0.707 l -3.234,3.234 c -0.566,0.567 -0.879,1.32 -0.879,2.122 0,0.802 0.313,1.555 0.879,2.121 l 0.172,0.172 c 1.17,1.167 3.072,1.169 4.242,0 l 5.758,-5.757 c 1.948,-1.95 1.948,-5.122 0,-7.071 L 34.414,40 l 5,-5 H 49 v 2 c 0,0.552 0.447,1 1,1 h 6 c 0.553,0 1,-0.448 1,-1 V 27 c 0,-0.552 -0.447,-1 -1,-1 z m -8,-4 c 0,1.654 -1.346,3 -3,3 -1.654,0 -3,-1.346 -3,-3 v -1 h 6 z m -3,-5 c 1.302,0 2.402,0.839 2.816,2 H 42.185 C 42.598,17.839 43.698,17 45,17 Z m -10.535,30.122 -5.758,5.757 c -0.391,0.391 -1.023,0.39 -1.414,0 L 27.121,52.707 C 26.932,52.519 26.828,52.268 26.828,52 c 0,-0.268 0.104,-0.518 0.293,-0.707 l 3.234,-3.234 c 0.566,-0.567 0.879,-1.32 0.879,-2.122 0,-0.802 -0.313,-1.555 -0.879,-2.121 L 26.77,40.23 c -0.391,-0.391 -1.023,-0.391 -1.414,0 L 11.707,53.878 c -0.391,0.391 -1.023,0.39 -1.414,0 L 10.121,53.706 C 9.932,53.518 9.828,53.267 9.828,53 c 0,-0.267 0.104,-0.518 0.293,-0.707 L 27,35.414 l 5.292,5.292 c 0,0 0,10e-4 10e-4,10e-4 10e-4,0 10e-4,0 10e-4,10e-4 l 2.171,2.171 c 1.169,1.169 1.169,3.073 0,4.243 z M 39,28 c -0.553,0 -1,0.448 -1,1 v 4.586 l -5,5 L 28.414,34 35.364,27.05 C 36.686,25.728 38.443,25 40.313,25 H 41 c 0.008,0 0.014,-0.004 0.022,-0.004 0.287,0.38 0.623,0.716 1.004,1 C 42.02,26.04 42,26.079 42,26.125 V 30 c 0,0.552 0.447,1 1,1 h 8 c 0.552,0 1,0.449 1,1 0,0.551 -0.448,1 -1,1 H 40 v -4 c 0,-0.552 -0.447,-1 -1,-1 z m 16,8 h -4 v -1 c 1.654,0 3,-1.346 3,-3 0,-1.654 -1.346,-3 -3,-3 v -1 h 4 z"
       id="path1"
       style="fill:#ff5e14;fill-opacity:1" /><path
       d="m 23,19 h 2 c 0.553,0 1,-0.448 1,-1 v -3 c 0,-0.552 -0.447,-1 -1,-1 -0.553,0 -1,0.448 -1,1 v 2 h -1 c -0.553,0 -1,0.448 -1,1 0,0.552 0.447,1 1,1 z"
       id="path2"
       style="fill:#ff5e14;fill-opacity:1" /><path
       d="m 25,25 c 3.859,0 7,-3.14 7,-7 0,-3.86 -3.141,-7 -7,-7 -3.859,0 -7,3.14 -7,7 0,3.86 3.141,7 7,7 z m 0,-12 c 2.757,0 5,2.243 5,5 0,2.757 -2.243,5 -5,5 -2.757,0 -5,-2.243 -5,-5 0,-2.757 2.243,-5 5,-5 z"
       id="path3"
       style="fill:#ff5e14;fill-opacity:1" /><path
       d="m 8,17 h 8 c 0.553,0 1,-0.448 1,-1 0,-0.552 -0.447,-1 -1,-1 H 8 c -0.553,0 -1,0.448 -1,1 0,0.552 0.447,1 1,1 z"
       id="path4"
       style="fill:#ff5e14;fill-opacity:1" /><path
       d="m 16,21 c 0.553,0 1,-0.448 1,-1 0,-0.552 -0.447,-1 -1,-1 H 8 c -0.553,0 -1,0.448 -1,1 0,0.552 0.447,1 1,1 z"
       id="path5"
       style="fill:#ff5e14;fill-opacity:1" /><path
       d="m 12,23 c -0.553,0 -1,0.448 -1,1 0,0.552 0.447,1 1,1 h 6 c 0.553,0 1,-0.448 1,-1 0,-0.552 -0.447,-1 -1,-1 z"
       id="path6"
       style="fill:#ff5e14;fill-opacity:1" /><path
       d="m 19,12 c 0,-0.552 -0.447,-1 -1,-1 h -6 c -0.553,0 -1,0.448 -1,1 0,0.552 0.447,1 1,1 h 6 c 0.553,0 1,-0.448 1,-1 z"
       id="path7"
       style="fill:#ff5e14;fill-opacity:1" /></g></svg>
