<?xml version="1.0" encoding="UTF-8" standalone="no"?>
<svg
   data-name="레이어 1"
   viewBox="0 0 64 64"
   x="0px"
   y="0px"
   version="1.1"
   id="svg10"
   sodipodi:docname="service-02-same-day-noun-sun-6478267.svg"
   width="64"
   height="64"
   inkscape:version="1.4 (e7c3feb1, 2024-10-09)"
   xmlns:inkscape="http://www.inkscape.org/namespaces/inkscape"
   xmlns:sodipodi="http://sodipodi.sourceforge.net/DTD/sodipodi-0.dtd"
   xmlns="http://www.w3.org/2000/svg"
   xmlns:svg="http://www.w3.org/2000/svg">
  <sodipodi:namedview
     id="namedview10"
     pagecolor="#ffffff"
     bordercolor="#000000"
     borderopacity="0.25"
     inkscape:showpageshadow="2"
     inkscape:pageopacity="0.0"
     inkscape:pagecheckerboard="0"
     inkscape:deskcolor="#d1d1d1"
     inkscape:zoom="3.8429093"
     inkscape:cx="67.787184"
     inkscape:cy="83.530465"
     inkscape:window-width="1920"
     inkscape:window-height="1147"
     inkscape:window-x="0"
     inkscape:window-y="25"
     inkscape:window-maximized="1"
     inkscape:current-layer="svg10" />
  <defs
     id="defs1">
    <style
       id="style1">
      .cls-1 {
        stroke-width: 0px;
      }
    </style>
  </defs>
  <g
     id="g10"
     transform="matrix(0.81012658,0,0,0.81012658,-8.5063292,-8.5063292)"
     style="fill:#ff5e14;fill-opacity:1">
    <path
       class="cls-1"
       d="M 50,29.25 C 38.56,29.25 29.25,38.56 29.25,50 29.25,61.44 38.56,70.75 50,70.75 61.44,70.75 70.75,61.44 70.75,50 70.75,38.56 61.44,29.25 50,29.25 Z m 0,37.5 c -9.24,0 -16.75,-7.51 -16.75,-16.75 0,-9.24 7.51,-16.75 16.75,-16.75 9.24,0 16.75,7.51 16.75,16.75 0,9.24 -7.51,16.75 -16.75,16.75 z"
       id="path1"
       style="fill:#ff5e14;fill-opacity:1" />
    <path
       class="cls-1"
       d="M 87.5,48 H 76.25 c -1.1,0 -2,0.9 -2,2 0,1.1 0.9,2 2,2 H 87.5 c 1.1,0 2,-0.9 2,-2 0,-1.1 -0.9,-2 -2,-2 z"
       id="path2"
       style="fill:#ff5e14;fill-opacity:1" />
    <path
       class="cls-1"
       d="m 25.75,50 c 0,-1.1 -0.9,-2 -2,-2 H 12.5 c -1.1,0 -2,0.9 -2,2 0,1.1 0.9,2 2,2 h 11.25 c 1.1,0 2,-0.9 2,-2 z"
       id="path3"
       style="fill:#ff5e14;fill-opacity:1" />
    <path
       class="cls-1"
       d="m 50,74.25 c -1.1,0 -2,0.9 -2,2 V 87.5 c 0,1.1 0.9,2 2,2 1.1,0 2,-0.9 2,-2 V 76.25 c 0,-1.1 -0.9,-2 -2,-2 z"
       id="path4"
       style="fill:#ff5e14;fill-opacity:1" />
    <path
       class="cls-1"
       d="m 48,12.5 v 11.25 c 0,1.1 0.9,2 2,2 1.1,0 2,-0.9 2,-2 V 12.5 c 0,-1.1 -0.9,-2 -2,-2 -1.1,0 -2,0.9 -2,2 z"
       id="path5"
       style="fill:#ff5e14;fill-opacity:1" />
    <path
       class="cls-1"
       d="m 69.98,32.85 7.96,-7.96 c 0.78,-0.78 0.78,-2.05 0,-2.83 -0.78,-0.78 -2.05,-0.78 -2.83,0 l -7.96,7.96 c -0.78,0.78 -0.78,2.05 0,2.83 0.39,0.39 0.9,0.59 1.41,0.59 0.51,0 1.02,-0.2 1.41,-0.59 z"
       id="path6"
       style="fill:#ff5e14;fill-opacity:1" />
    <path
       class="cls-1"
       d="m 30.02,67.15 -7.96,7.96 c -0.78,0.78 -0.78,2.05 0,2.83 0.39,0.39 0.9,0.59 1.41,0.59 0.51,0 1.02,-0.2 1.41,-0.59 l 7.96,-7.96 c 0.78,-0.78 0.78,-2.05 0,-2.83 -0.78,-0.78 -2.05,-0.78 -2.83,0 z"
       id="path7"
       style="fill:#ff5e14;fill-opacity:1" />
    <path
       class="cls-1"
       d="m 69.98,67.15 c -0.78,-0.78 -2.05,-0.78 -2.83,0 -0.78,0.78 -0.78,2.05 0,2.83 l 7.96,7.96 c 0.39,0.39 0.9,0.59 1.41,0.59 0.51,0 1.02,-0.2 1.41,-0.59 0.78,-0.78 0.78,-2.05 0,-2.83 l -7.96,-7.96 z"
       id="path8"
       style="fill:#ff5e14;fill-opacity:1" />
    <path
       class="cls-1"
       d="m 22.07,22.07 c -0.78,0.78 -0.78,2.05 0,2.83 l 7.96,7.96 c 0.39,0.39 0.9,0.59 1.41,0.59 0.51,0 1.02,-0.2 1.41,-0.59 0.78,-0.78 0.78,-2.05 0,-2.83 l -7.96,-7.96 c -0.78,-0.78 -2.05,-0.78 -2.83,0 z"
       id="path9"
       style="fill:#ff5e14;fill-opacity:1" />
  </g>
</svg>
