<?xml version="1.0" encoding="UTF-8" standalone="no"?>
<svg
   version="1.1"
   x="0px"
   y="0px"
   viewBox="0 0 64 64"
   xml:space="preserve"
   id="svg15"
   sodipodi:docname="service-04-direct-noun-direct-2711713.svg"
   width="64"
   height="64"
   inkscape:version="1.4 (e7c3feb1, 2024-10-09)"
   xmlns:inkscape="http://www.inkscape.org/namespaces/inkscape"
   xmlns:sodipodi="http://sodipodi.sourceforge.net/DTD/sodipodi-0.dtd"
   xmlns="http://www.w3.org/2000/svg"
   xmlns:svg="http://www.w3.org/2000/svg"><defs
     id="defs15" /><sodipodi:namedview
     id="namedview15"
     pagecolor="#ffffff"
     bordercolor="#000000"
     borderopacity="0.25"
     inkscape:showpageshadow="2"
     inkscape:pageopacity="0.0"
     inkscape:pagecheckerboard="0"
     inkscape:deskcolor="#d1d1d1"
     inkscape:zoom="2.8407891"
     inkscape:cx="19.536825"
     inkscape:cy="101.7323"
     inkscape:window-width="1920"
     inkscape:window-height="1147"
     inkscape:window-x="0"
     inkscape:window-y="25"
     inkscape:window-maximized="1"
     inkscape:current-layer="svg15" /><g
     id="g13"
     transform="matrix(0.67376788,0,0,0.67376788,-1.6844197,-1.4096245)"
     style="fill:#ff5e14;fill-opacity:1"><path
       d="m 80,56.3 c -1.1,-1.1 -2.9,-1.1 -3.9,0 -1.1,1.1 -1.1,2.9 0,3.9 l 4.5,4.5 H 18.1 c -1.1,-3.1 -4,-5.3 -7.5,-5.3 -4.5,0 -8.1,3.6 -8.1,8.1 0,4.5 3.6,8.1 8.1,8.1 3.5,0 6.4,-2.2 7.5,-5.3 h 62.5 l -4.5,4.5 c -1.1,1.1 -1.1,2.9 0,3.9 0.5,0.5 1.3,0.8 2,0.8 0.7,0 1.4,-0.3 2,-0.8 l 9.3,-9.3 c 1.1,-1.1 1.1,-2.9 0,-3.9 z"
       id="path5"
       style="fill:#ff5e14;fill-opacity:1" /><path
       d="m 46.7,26.3 c 0.1,0 0.3,0 0.4,0 C 48,26.1 49,26 50,25.9 c 1.5,-0.1 2.7,-1.5 2.5,-3 -0.1,-1.5 -1.5,-2.7 -3,-2.5 -1.1,0.1 -2.2,0.2 -3.3,0.4 -1.5,0.2 -2.6,1.7 -2.3,3.2 0.2,1.3 1.4,2.3 2.8,2.3 z"
       id="path6"
       style="fill:#ff5e14;fill-opacity:1" /><path
       d="m 32.2,31.5 c 0.5,0 1,-0.1 1.4,-0.4 0.8,-0.5 1.7,-1 2.5,-1.4 C 37.5,29 38,27.3 37.4,26 36.7,24.6 35,24.1 33.7,24.7 c -1,0.5 -2,1 -2.9,1.6 -1.3,0.8 -1.8,2.5 -1,3.8 0.5,1 1.5,1.4 2.4,1.4 z"
       id="path7"
       style="fill:#ff5e14;fill-opacity:1" /><path
       d="m 61.5,26.7 c 0.9,0.2 1.9,0.5 2.8,0.7 0.3,0.1 0.5,0.1 0.8,0.1 1.2,0 2.3,-0.8 2.7,-2 0.4,-1.5 -0.4,-3 -1.9,-3.5 -1.1,-0.3 -2.1,-0.6 -3.2,-0.8 -1.5,-0.3 -3,0.6 -3.3,2.1 -0.4,1.5 0.6,3 2.1,3.4 z"
       id="path8"
       style="fill:#ff5e14;fill-opacity:1" /><path
       d="m 77,34.1 c 0.5,0.4 1.1,0.6 1.7,0.6 0.8,0 1.6,-0.4 2.2,-1.1 1,-1.2 0.7,-3 -0.5,-3.9 -0.9,-0.7 -1.8,-1.3 -2.7,-1.9 -1.3,-0.9 -3,-0.5 -3.9,0.8 -0.9,1.3 -0.5,3 0.8,3.9 0.8,0.4 1.6,1 2.4,1.6 z"
       id="path9"
       style="fill:#ff5e14;fill-opacity:1" /><path
       d="M 97.4,57.1 C 97.2,56 96.9,55 96.6,53.9 c -0.4,-1.5 -2,-2.3 -3.5,-1.9 -1.5,0.4 -2.3,2 -1.9,3.5 0.3,0.9 0.5,1.9 0.7,2.8 0.3,1.3 1.4,2.2 2.7,2.2 0.2,0 0.4,0 0.6,-0.1 1.6,-0.3 2.6,-1.8 2.2,-3.3 z"
       id="path10"
       style="fill:#ff5e14;fill-opacity:1" /><path
       d="m 20.6,41.7 c 0.8,0 1.6,-0.4 2.2,-1 0.6,-0.8 1.2,-1.5 1.9,-2.2 1,-1.1 1,-2.9 -0.2,-3.9 -1.1,-1 -2.9,-1 -3.9,0.2 -0.7,0.8 -1.5,1.6 -2.2,2.5 -1,1.2 -0.8,3 0.4,3.9 0.5,0.3 1.2,0.5 1.8,0.5 z"
       id="path11"
       style="fill:#ff5e14;fill-opacity:1" /><path
       d="M 91.3,41.9 C 90.7,41 90.1,40 89.5,39.2 c -0.9,-1.3 -2.6,-1.5 -3.9,-0.6 -1.3,0.9 -1.5,2.6 -0.6,3.9 0.6,0.8 1.1,1.6 1.6,2.4 0.5,0.9 1.4,1.3 2.4,1.3 0.5,0 1,-0.1 1.5,-0.4 1.2,-0.8 1.6,-2.6 0.8,-3.9 z"
       id="path12"
       style="fill:#ff5e14;fill-opacity:1" /><path
       d="m 12.2,55 c 0.3,0.1 0.6,0.2 0.9,0.2 1.2,0 2.2,-0.7 2.6,-1.9 0.3,-0.9 0.7,-1.8 1,-2.7 0.6,-1.4 -0.1,-3.1 -1.5,-3.7 -1.4,-0.6 -3.1,0.1 -3.7,1.5 -0.4,1 -0.8,2 -1.2,3.1 -0.3,1.4 0.5,3 1.9,3.5 z"
       id="path13"
       style="fill:#ff5e14;fill-opacity:1" /></g></svg>
