<?xml version="1.0" encoding="UTF-8" standalone="no"?>
<svg
   data-name="Layer 3"
   viewBox="0 0 64 64"
   x="0px"
   y="0px"
   version="1.1"
   id="svg4"
   sodipodi:docname="service-01-overnight-noun-night-4788010.svg"
   width="64"
   height="64"
   inkscape:version="1.4 (e7c3feb1, 2024-10-09)"
   xmlns:inkscape="http://www.inkscape.org/namespaces/inkscape"
   xmlns:sodipodi="http://sodipodi.sourceforge.net/DTD/sodipodi-0.dtd"
   xmlns="http://www.w3.org/2000/svg"
   xmlns:svg="http://www.w3.org/2000/svg">
  <defs
     id="defs4" />
  <sodipodi:namedview
     id="namedview4"
     pagecolor="#ffffff"
     bordercolor="#000000"
     borderopacity="0.25"
     inkscape:showpageshadow="2"
     inkscape:pageopacity="0.0"
     inkscape:pagecheckerboard="0"
     inkscape:deskcolor="#d1d1d1"
     inkscape:zoom="4.1600883"
     inkscape:cx="26.561936"
     inkscape:cy="28.845542"
     inkscape:window-width="1920"
     inkscape:window-height="1147"
     inkscape:window-x="0"
     inkscape:window-y="25"
     inkscape:window-maximized="1"
     inkscape:current-layer="svg4" />
  <path
     d="M 54.228,34.371 A 27.051,27.051 0 1 0 34.371,54.227 14.989,14.989 0 1 0 54.228,34.371 Z M 28,53 A 25.038,25.038 0 1 1 52.346,33.647 14.953,14.953 0 0 0 48.387,33.02 20.976,20.976 0 1 0 33.02,48.394 14.942,14.942 0 0 0 33.647,52.346 25.081,25.081 0 0 1 28,53 Z m 5.1,-6.709 A 18.918,18.918 0 0 1 29,46.961 V 45 h -2 v 1.949 A 18.892,18.892 0 0 1 15.312,42.1 L 16.686,40.726 15.272,39.311 13.9,40.688 A 18.892,18.892 0 0 1 9.051,29 H 11 V 27 H 9.051 A 18.892,18.892 0 0 1 13.9,15.312 l 1.374,1.375 1.414,-1.415 L 15.312,13.9 A 18.892,18.892 0 0 1 27,9.051 V 11 h 2 V 9.051 A 18.892,18.892 0 0 1 40.688,13.9 l -1.374,1.374 1.414,1.415 1.372,-1.377 A 18.892,18.892 0 0 1 46.949,27 H 45 v 2 h 1.962 A 18.928,18.928 0 0 1 46.293,33.1 15.02,15.02 0 0 0 33.1,46.291 Z M 48,61 A 13,13 0 1 1 61,48 13.015,13.015 0 0 1 48,61 Z"
     id="path1"
     style="fill:#ff5e14;fill-opacity:1" />
  <path
     d="m 57.693,49.81 a 1,1 0 0 0 -1.017,-0.226 7.255,7.255 0 0 1 -2.36,0.4 7.1,7.1 0 0 1 -7.169,-7.022 6.9,6.9 0 0 1 0.936,-3.458 1,1 0 0 0 -0.968,-1.5 A 10.019,10.019 0 0 0 48.19,58 10.224,10.224 0 0 0 57.958,50.818 1,1 0 0 0 57.693,49.81 Z M 48.19,56 A 8.119,8.119 0 0 1 40,47.975 a 8.02,8.02 0 0 1 5.534,-7.6 8.845,8.845 0 0 0 -0.387,2.581 9.107,9.107 0 0 0 9.169,9.022 9.2,9.2 0 0 0 0.995,-0.054 A 8.271,8.271 0 0 1 48.19,56 Z"
     id="path2"
     style="fill:#ff5e14;fill-opacity:1" />
  <path
     d="M 41,29 V 27 H 31.858 A 4,4 0 0 0 29,24.142 V 15 h -2 v 9.143 A 3.992,3.992 0 1 0 31.858,29 Z m -13,1 a 2,2 0 1 1 2,-2 2,2 0 0 1 -2,2 z"
     id="path3"
     style="fill:#ff5e14;fill-opacity:1" />
</svg>
