<svg version="1.1" id="Layer_1" xmlns="http://www.w3.org/2000/svg" x="0" y="0" viewBox="0 0 200 74.4" xml:space="preserve"><style>.st0{fill:#262b26}</style><path class="st0" d="M34.7 62.7H17V11.5h18.3c12.9 0 21.8 8.3 21.8 27 0 15.3-8.3 24.2-22.4 24.2m-2.1-43.4h-4.8v35.6h5.7c7.7 0 11.8-3.9 11.8-17.5 0-13.7-5.3-18.1-12.7-18.1m56.5 43.4l-2.9-10.5h-14l-2.7 10.5H58.3l14.1-51.2h14.1l14.2 51.2H89.1zM81.5 34c-.9-3.5-2.1-8.3-2.4-10.9-.3 2.6-1.5 7.5-2.5 11-.9 3.8-2.3 9.7-2.3 9.7h9.5s-1.4-6-2.3-9.8m47.4 23.9v-9c-.1-3.6-1.5-6.3-6.2-6.3h-5v20.2h-11.4V11.5h17.9c11.7 0 17.7 5.3 17.7 15.3 0 7.9-5 10.1-10.2 11.1 6.6 1 8.7 5.4 8.9 13.8l.1 6.2h-11.8zm-8.1-38.5h-3.1v14.7h4.5c5.1 0 8.1-1.7 8.1-7.3-.1-5.1-3.6-7.4-9.5-7.4m52.8 38.5l-11.8-17.6v17.6h-11.4V11.5h11.4v19.9L175 11.5h12.3l-16.2 23.8 15.6 22.6z"/><path class="st0" d="M0 74.2V0h84l1.2 4.3H5.4V70h111.8v4.2zm134-11.6v11.6h-2V62.6h-3.1v-1.9h8.2v1.9zm7.1 4.8c0-1.9.7-3.5 2.1-4.9 1.4-1.4 3.1-2.1 5-2.1s3.6.7 5 2.1c1.4 1.4 2.1 3 2.1 5 0 1.9-.7 3.6-2.1 5-1.4 1.4-3.1 2-5.1 2-1.8 0-3.3-.6-4.7-1.8-1.5-1.4-2.3-3.2-2.3-5.3m2 0c0 1.5.5 2.7 1.5 3.7s2.2 1.4 3.5 1.4c1.4 0 2.6-.5 3.6-1.5s1.5-2.2 1.5-3.6-.5-2.7-1.4-3.6c-1-1-2.1-1.5-3.6-1.5-1.4 0-2.6.5-3.6 1.5s-1.5 2.2-1.5 3.6m16.9 0c0-1.9.7-3.5 2.1-4.9 1.4-1.4 3.1-2.1 5-2.1s3.6.7 5 2.1c1.4 1.4 2.1 3 2.1 5 0 1.9-.7 3.6-2.1 5-1.4 1.4-3.1 2-5.1 2-1.7 0-3.3-.6-4.7-1.8-1.5-1.4-2.3-3.2-2.3-5.3m2.1 0c0 1.5.5 2.7 1.5 3.7s2.2 1.4 3.5 1.4c1.4 0 2.6-.5 3.6-1.5s1.5-2.2 1.5-3.6-.5-2.7-1.4-3.6c-1-1-2.2-1.5-3.6-1.5s-2.6.5-3.6 1.5-1.5 2.2-1.5 3.6m20-6.7v11.6h3.9v1.9h-6V60.7zm17.5 2l-1.7 1c-.3-.5-.6-.9-.9-1.1-.3-.2-.7-.3-1.1-.3-.6 0-1 .2-1.4.5s-.6.7-.6 1.2c0 .7.5 1.2 1.5 1.6l1.4.6c1.1.4 1.9 1 2.4 1.6s.8 1.4.8 2.4c0 1.3-.4 2.3-1.3 3.1-.8.8-1.9 1.2-3.1 1.2-1.2 0-2.2-.3-2.9-1-.8-.7-1.2-1.7-1.4-2.9l2.1-.5c.1.8.3 1.3.5 1.6.4.6 1 .9 1.8.9.6 0 1.2-.2 1.6-.6.4-.4.6-1 .6-1.6 0-.3 0-.5-.1-.7l-.3-.6c-.2-.2-.4-.4-.6-.5-.2-.2-.5-.3-.9-.5l-1.3-.5c-1.9-.8-2.8-1.9-2.8-3.4 0-1 .4-1.9 1.2-2.5.8-.7 1.7-1 2.9-1 1.5-.3 2.8.4 3.6 2"/></svg>