<?xml version="1.0" encoding="utf-8"?>
<!-- Generator: Adobe Illustrator 22.0.1, SVG Export Plug-In . SVG Version: 6.00 Build 0)  -->
<svg version="1.1" xmlns="http://www.w3.org/2000/svg" xmlns:xlink="http://www.w3.org/1999/xlink" x="0px" y="0px"
	 viewBox="0 0 178 81" style="enable-background:new 0 0 178 81;" xml:space="preserve">
<style type="text/css">
	.st0{fill:#FFFFFF;}
	.st1{clip-path:url(#SVGID_2_);}
	.st2{opacity:0.75;fill:#ECEFF3;}
	.st3{fill:#ECEFF3;}
	.st4{clip-path:url(#SVGID_4_);fill:#202951;stroke:#D22031;stroke-miterlimit:10;}
	.st5{fill:#2A367A;}
	.st6{fill:#D22031;}
	.st7{fill:#CA2031;}
	.st8{fill:#B1B0B0;}
	.st9{fill:#CE0E2D;}
	.st10{fill:#001689;}
	.st11{fill:#8E9193;}
	.st12{fill:none;stroke:#D22031;stroke-miterlimit:10;}
	.st13{fill:#202951;}
	.st14{clip-path:url(#SVGID_6_);}
	.st15{clip-path:url(#SVGID_8_);}
	.st16{clip-path:url(#SVGID_10_);}
	.st17{clip-path:url(#SVGID_12_);}
	.st18{clip-path:url(#SVGID_14_);}
	.st19{clip-path:url(#SVGID_16_);}
	.st20{clip-path:url(#SVGID_18_);}
	.st21{clip-path:url(#SVGID_20_);}
	.st22{clip-path:url(#SVGID_22_);}
	.st23{clip-path:url(#SVGID_24_);}
	.st24{clip-path:url(#SVGID_26_);}
	.st25{clip-path:url(#SVGID_28_);}
	.st26{fill:#2A367A;stroke:#2A367A;stroke-miterlimit:10;}
	.st27{fill:none;stroke:#202951;stroke-miterlimit:10;}
	.st28{fill:#FFFFFF;stroke:#202951;stroke-miterlimit:10;}
	.st29{fill:#FFFFFF;stroke:#D22031;stroke-miterlimit:10;}
	.st30{clip-path:url(#SVGID_30_);}
	.st31{fill:url(#SVGID_33_);}
	.st32{fill:#FFFFFF;stroke:#848484;stroke-miterlimit:10;}
	.st33{fill:#231F20;}
	.st34{fill:none;stroke:#3B3B3D;stroke-miterlimit:10;}
	.st35{clip-path:url(#SVGID_35_);}
	.st36{clip-path:url(#SVGID_37_);}
	.st37{fill:#FFFFFF;stroke:#001689;stroke-miterlimit:10;}
	.st38{opacity:0.9;fill:#2A367A;}
	.st39{fill:none;stroke:#D22031;stroke-width:2;stroke-miterlimit:10;}
	.st40{fill:#FFFFFF;stroke:#FFFFFF;stroke-miterlimit:10;}
	.st41{opacity:0.5;fill:#231F20;}
	.st42{fill:none;stroke:#FFFFFF;stroke-miterlimit:10;}
	.st43{fill:#D8D8D8;}
	.st44{display:none;}
	.st45{display:inline;opacity:0.45;fill:#A91E2D;}
	.st46{display:inline;opacity:0.25;fill:#1C27A2;}
	.st47{display:inline;opacity:0.45;fill:#AC272D;}
	.st48{display:inline;}
	.st49{display:inline;fill:#58595B;}
</style>
<g id="background">
</g>
<g id="footer">
</g>
<g id="main-content">
	<g id="Layer_7">
	</g>
</g>
<g id="main-slide">
</g>
<g id="header">
	<g>
		<path class="st0" d="M3.6,51.5c0.2,1.9,0.6,3.7,1.1,5.6c1.1,3.4,2.6,6.6,4.8,9.5c2.3,3.1,4.7,5.9,8.2,7.6
			c3.7,1.8,7.3,1.9,11.3,1.7c1.5-0.1,20.5-0.8,20.5-0.3c0-3.7,0-7.3,0-11c0,0-11.8,0-12.8,0c-3.9,0-8.2,0.6-12-0.6
			c-1.6-0.5-3-1.4-4.3-2.4c-1.7-1.5-3.1-3.4-3.8-5.6c-1-2.9-1-6.1-1-9.2c0-3.9,0-7.8,0.1-11.8c0-3.6-0.5-7.6,1-11.1
			c1-2.4,2.6-4.4,4.6-6c2.3-1.8,5.2-2.4,8.1-2.5c7.8-0.1,15.6,0.1,23.3,0.1c0,0,0-11,0-11c-5.3,0-10.7,0-16,0c-2.7,0-5.3,0-8,0
			c-4.4,0-8.6,0-12.4,2.4c-2.6,1.6-4.8,4.1-6.6,6.6C7,17.1,5.2,21.1,4.3,25.4c-1,4.5-0.8,9.3-0.8,13.9C3.4,43.3,3.2,47.5,3.6,51.5z"
			/>
		<path class="st0" d="M173,76c0-3.7,0-7.3,0-11c-13,0-26,0-39,0c0-2.3,0-4.7,0-7c0-2.2-0.2-4.5,0.1-6.7c0.3-1.6,1.1-2.8,2.1-3.9
			c2.3-2.4,4.6-2.5,7.7-2.5c2.3,0,4.7,0,7,0c3.6,0,7.9,0.7,11.3-0.9c2.1-1,4.1-2.5,5.7-4.1c1.9-2,3.6-4.3,4.5-6.9
			c0.7-2,0.6-4,0.5-6.1c0-1,0-2,0-3c0-1.2,0-2.4,0-3.6c0-1.1,0.1-2.2-0.2-3.3c-0.2-0.7-0.4-1.4-0.7-2c-0.7-1.9-1.8-3.6-3.1-5.1
			c-1.2-1.4-2.7-2.5-4.3-3.4c-1.7-0.9-3.2-1.6-5.2-1.6c-2.2,0-4.4,0-6.5,0c-3,0-6,0-9,0c-6,0-12,0-18,0c0,3.7,0,7.3,0,11
			c5,0,10,0,15,0c2.7,0,5.3,0,8,0c1.7,0,3.3,0,5,0c0.6,0,3.6-0.2,6,2c1.2,1.1,1.7,2.3,2,3c0.2,1.1,0.7,4.4-1,8c-0.7,1.5-1.8,2.9-3,4
			c-0.7,0.6-1.4,1.3-2.3,1.7c-0.8,0.4-1.6,0.3-2.4,0.3c-2.1,0-4.2,0-6.3,0c-1.8,0-3.6,0-5.4,0c-1.6,0-3.3-0.1-4.9,0.2
			c-1.3,0.2-2.6,0.6-3.8,1.1c-2.3,0.9-4.7,1.9-6.8,4.2c-1.9,2-2.6,4.1-3,5.5c-0.4,1.1-0.8,2.8-1,8c-0.1,3.9,0,6.8,0,7c0,5,0,10,0,15
			C139,76,156,76,173,76z"/>
		<path class="st0" d="M73,27c0-0.7-0.1-1.5-0.1-2.2c-0.1-1.5-0.1-3,0.2-4.5c1.3-5.9,8.3-4.8,12.8-4.8c5.2,0,10.4,0,15.6,0
			c0.6,0,7,0,7,0c0-3.7,0-7.3,0-11c-6,0-12,0-18,0c-3.3,0-6.7,0-10,0c-3,0-4.8,0.4-7,1C71.5,6.1,67,7.4,64,11c-2.7,3.3-2.8,6.9-3,14
			c-0.1,5.3-0.2,10.4,3,15c0.6,0.9,1.8,2.6,4,4c3,1.9,6,2,10,2c6.6,0.1,11.6,0,15,0c0.9-0.1,5.4-0.3,7.5,2.5c0.9,1.2,1,1.1,1,8
			c0,4.4-0.5,5.3-1,6c-1.2,1.5-3,1.9-4,2c-10.3,0-20.7,0-31,0c0,3.7,0,7.3,0,11c5.2,0,10.4-0.1,15.6-0.1c3.8,0,7.6,0.2,11.4,0.2
			c3.7,0,7.1,0.1,10.7-0.8c0.9-0.2,1.9-0.5,2.7-1c3.7-2,6.6-6.2,7.4-10.2c0.2-1,0.3-2.1,0.2-3.1c-0.1-2-0.1-4-0.1-6
			c0-1.4,0-2.8,0.1-4.2c0.1-2.3-0.1-4.5-1.1-6.6c-0.6-1.3-1.4-2.5-2.3-3.6c0,0-0.1-0.1-0.1-0.1c-1.4-1.5-2.9-2.4-4-3
			c-2.9-1.5-5.3-1.9-7-2c-0.7,0-1,0-5,0c-1.2,0-2.4,0-3.6,0c-2.4,0.1-4.7,0.2-7.1,0.2c-2.6,0.1-6,0.1-8-1.7c-1-0.9-1.5-2-1.7-2.5
			C73.2,29.7,73,28.4,73,27z"/>
		<path class="st43" d="M49.5,64.5c0,3.7,0,7.3,0,11c1-0.7,4.1-2.7,8.5-2.5c3.8,0.1,6.4,1.8,7.5,2.5c0-3.7,0-7.3,0-11
			C65,65.1,62.3,67.8,58,68C53.1,68.2,49.9,65,49.5,64.5z"/>
		<path class="st43" d="M108.5,4.5c0,3.7,0,7.3,0,11c1.1-0.7,4.5-2.8,9.3-2.5c4.2,0.2,7.1,2.2,8.2,3c0-3.7,0-7.3,0-11
			c-0.9,0.7-3.9,2.9-8.2,3C112.7,8.1,109.3,5.2,108.5,4.5z"/>
	</g>
</g>
<g id="Grid_-_12_Cols" class="st44">
</g>
</svg>
